PathFileType	4	(X/Y/Z)	pose2sim_0-766.trc
DataRate	CameraRate	NumFrames	NumMarkers	Units	OrigDataRate	OrigDataStartFrame	OrigNumFrames
50	50	7	22	m	50	479	767
Frame#	Time	Hip			RHip			RKnee			RAnkle			RBigToe			RSmallToe			RHeel			LHip			LKnee			LAnkle			LBigToe			LSmallToe			LHeel			Neck			Head			Nose			RShoulder			RElbow			RWrist			LShoulder			LElbow			LWrist			
		X1	Y1	Z1	X2	Y2	Z2	X3	Y3	Z3	X4	Y4	Z4	X5	Y5	Z5	X6	Y6	Z6	X7	Y7	Z7	X8	Y8	Z8	X9	Y9	Z9	X10	Y10	Z10	X11	Y11	Z11	X12	Y12	Z12	X13	Y13	Z13	X14	Y14	Z14	X15	Y15	Z15	X16	Y16	Z16	X17	Y17	Z17	X18	Y18	Z18	X19	Y19	Z19	X20	Y20	Z20	X21	Y21	Z21	X22	Y22	Z22	
479	9.58	0.12474403436028579	0.8474334362450496	-0.02180039546757629	0.025962258513843317	0.8322250131591207	-0.02492334530435666	0.0077734337820435625	0.4510287420098126	-0.06196162447272514	-0.0032174932876724333	0.0834908211550317	-0.07876147687536293	-0.03669096145988316	0.03365155207877504	0.05729177691516084	-0.07095720254073658	0.03417799999910792	0.008089960101658593	0.008707842915915627	0.04219906672127604	-0.10583470502500573	0.2267969190224809	0.8319736483560938	-0.02597675891913387	0.23859735837987356	0.4533544078701196	-0.06234068151114611	0.25393433245811237	0.08445254510693052	-0.08531381661790849	0.29418256202173276	0.03327701093547381	0.06520164245979981	0.3301842704309239	0.03596535988739753	0.01525664688658245	0.24161519431300207	0.040285768714730205	-0.10704610875854903	0.12782586107565774	1.3979225743178805	-0.0153352978523518	0.137253188766393	1.6251175501726394	0.02303227788288835	0.12908226099975445	1.5132845009960194	0.1370301790871913	-0.023009907415482353	1.3052406250677058	-0.022048366206361417	-0.136370698889423	1.0987867910229383	0.06401455010655165	-0.18769481031729238	1.2769858699908874	0.1611284823002358	0.2736530716914126	1.3095209193255335	-0.0485269216341383	0.38237428514283256	1.106485312245786	0.0435517665256707	0.41966335293517637	1.2868732409993147	0.17823649056503457
480	9.6	0.12712218951588702	0.8567260972750179	-0.026714135831117702	0.02752123063688016	0.8388476708815039	-0.02165065527194925	0.009171835568082726	0.45991298585946594	-0.06557561747503003	-0.0038782332357161094	0.0787915998613753	-0.08876618402765613	-0.03464255155129972	0.03286227815237619	0.08535265571555936	-0.07279732942640194	0.033190839147646166	0.02313622829186563	0.010451074365880384	0.03288928742842585	-0.11458075025532852	0.22533633560587848	0.8406086655333262	-0.02745163890207057	0.23540678585057653	0.4624292939262415	-0.06306098892171089	0.2537007668307366	0.08237280534417407	-0.08644692727295943	0.29340591004696576	0.031067224897011535	0.07109217976417159	0.3251266774079626	0.03230925922650436	0.017890988500372892	0.23961185583412348	0.04032319711141549	-0.10994272932205203	0.1269662768276705	1.3995573873126084	-0.010711805941958339	0.14212292578139998	1.62440530222523	0.01126225212383964	0.1247018041123252	1.5156368119695374	0.11376883167536546	-0.025062560189548833	1.307812483927205	-0.025094159425273765	-0.13669172906199098	1.0965226490796798	0.06718207739993916	-0.18766188152763288	1.2802664803416606	0.15721592743255475	0.27208569112558567	1.3111437224158349	-0.029179234105838062	0.37986781071897685	1.1077529278467404	0.04997099869295732	0.4169672326928055	1.2867287662071243	0.15787561365793934
481	9.62	0.12442102771978623	0.8452850519026652	-0.02122723522441117	0.02619723356826554	0.832722685343449	-0.025853971700180868	0.008463895131604124	0.4524619580078668	-0.061388307454176075	-0.004597939154738255	0.08093453913779668	-0.08243936606415642	-0.03231052614979825	0.03505100806101656	0.06644644156989948	-0.07141153818840154	0.03576311971235575	0.013507772777838156	0.007265723584506226	0.043426354660869505	-0.10752026588350005	0.22375151081270223	0.8328258666638692	-0.02913985798038535	0.23852141230469462	0.4558882766408034	-0.061675853717997296	0.25158185692361307	0.08454462130378174	-0.08280516447531963	0.29302295507626747	0.03424689871171636	0.06371010862628204	0.33047921457435003	0.03712029546748808	0.011352956876632535	0.23915787725269366	0.0405852897558239	-0.10469355110273132	0.12836912758931476	1.3979571549590823	-0.01427192294121888	0.13781264706857937	1.6240206142820475	0.023936788914772054	0.12779582235906134	1.5137279966812438	0.12018920519232751	-0.022755476576497468	1.3101937196797067	-0.020945061779938955	-0.1365310478413989	1.1034588939290046	0.07365279410365984	-0.18503633761519964	1.2942260213818706	0.15453154990853243	0.2737753937140435	1.3107274646750677	-0.04634312283983627	0.3786286659379281	1.113934199563467	0.05053615363482203	0.41073892188798755	1.2941158947583984	0.1685676872493696
482	9.64	0.12363102295210165	0.844641610141927	-0.01912049743186648	0.024339243389749337	0.8307676113123424	-0.022388467587551135	0.007666881968712732	0.45043067027605677	-0.06699451883478298	-0.003876534722242565	0.08277093960965423	-0.0830189341674094	-0.03316508733203152	0.03574943164541745	0.060580513419765274	-0.07146769569961423	0.03507181786418425	0.00723286251759647	0.006494819084855627	0.043969425905979964	-0.11118675966607024	0.22527720249517685	0.8309358399592824	-0.029190648592896138	0.23877420761091112	0.45522737083872844	-0.06315481599418317	0.25270957746692	0.08476429334778297	-0.08244527006043392	0.2929359261582097	0.03601690804712126	0.07092880130291919	0.3303052373048921	0.038764490131044854	0.01886057688518513	0.24066700191772725	0.04238195382544273	-0.10975539545192911	0.12893385349024364	1.3991983649995372	-0.01618755948867718	0.1382559501108439	1.6236161049689208	0.016769617698619104	0.12900665063418673	1.5127813903078542	0.1200348591844248	-0.023238168334166507	1.3107289751868645	-0.025221238330315227	-0.13653075558169828	1.1045462785537443	0.07247331476523738	-0.17855877031790085	1.2957497930080297	0.15042587689291242	0.27376735591028833	1.3124706030420448	-0.0474685792694997	0.37905546691071307	1.112076268432301	0.048582564994891234	0.4034089610834421	1.2938866035277121	0.15251767857184312
483	9.66	0.12291246941907229	0.8469774983931924	-0.019345291936187958	0.026499626027275198	0.8340011192775867	-0.021816379692917314	0.007271819188666107	0.4512998118043611	-0.06380560673933322	-0.005337565144788441	0.0831480919376936	-0.08055102951452373	-0.033751781717879605	0.03512761320386142	0.06377432138394694	-0.07289093701623724	0.035597188042297306	0.010395315060698204	0.009052242122654656	0.04163121528908643	-0.10390790487936101	0.22459329934397873	0.8326646584546827	-0.028723119671770093	0.23661956778683663	0.4546973657617137	-0.06658546260006895	0.25267266807798683	0.08522132486920828	-0.08260006996776413	0.291461733938556	0.035270457014998334	0.06378504260593351	0.33006782975850113	0.03787793255038856	0.013665166882131362	0.23937963707902352	0.04265597957831402	-0.103916927010817	0.12830427183544846	1.3987276907667474	-0.01739507252894134	0.13907807250701354	1.625551543157576	0.01773364717639433	0.12705016543621825	1.5133538574281862	0.1173298046595601	-0.02366712036733059	1.311549068936576	-0.02600424447416096	-0.1372197179870797	1.1039094235227358	0.0721683566551019	-0.17279235204496565	1.296932904775667	0.14657447077548244	0.2760016436929686	1.312032872681711	-0.050593474567523535	0.3788580352741335	1.1071931057304014	0.04994595702125771	0.40275912447263407	1.2921267765708353	0.13727756796768573
484	9.68	0.12355578809150473	0.8541657459202198	-0.021265719049865073	0.025378321039485844	0.8361164951143866	-0.01948368501392329	0.008196447803150595	0.4563696384375582	-0.06212666267252081	-0.0038266563853222224	0.07645896137455706	-0.08560671371917705	-0.03506386065552617	0.03327327023025412	0.08889032056954162	-0.07080432911319068	0.035186427735506544	0.032470948302921215	0.0056871532953149525	0.032609943925217634	-0.1146251751402362	0.2232730003856502	0.8372708677790011	-0.024630375402736777	0.23569668664118268	0.45951649004132283	-0.06516805955614788	0.25377004992407487	0.08189765134110998	-0.08317520893106899	0.2906638208533716	0.030452553536337395	0.08058508426065997	0.32345979327740826	0.03289708336187469	0.021390123396226122	0.23997932881838144	0.03999540930038486	-0.11035855967363918	0.1265980584181585	1.399195074360852	-0.01616209168090101	0.14198972842598423	1.6255405987589981	0.010849486144772652	0.12539204412367358	1.514692551716442	0.11184990836659177	-0.026318320664552575	1.3113704566689712	-0.02754854921060029	-0.1338458475586586	1.0967838206388845	0.06596156879392741	-0.17486353444581434	1.2921453662784286	0.1348473925732315	0.2678871358685725	1.306885601458202	-0.03442615201180714	0.3784772152234246	1.1067773729887287	0.051492762593570524	0.4020938145363901	1.3047774571713566	0.13441196176291284
485	9.7	0.12343207651195805	0.844863916619045	-0.02032290922029611	0.02656138113215247	0.8304715403908672	-0.016590862923621958	0.007217395525794771	0.4528939088242235	-0.061745049768484404	-0.0037795979332605513	0.08100930998885225	-0.08366075969322101	-0.0363597493559529	0.03485307539456862	0.055954780956829	-0.07498252222336456	0.034314508827828265	0.005122146384538371	0.009301637059326127	0.042006015478328336	-0.11328888004922723	0.22669000556984614	0.8314621209738872	-0.02494117556011458	0.23727576664466185	0.45359049584749644	-0.06634680467073606	0.25381305806500126	0.08434325966790598	-0.0825211582749149	0.2905658339930631	0.036917121724892484	0.0716570697772977	0.3287730072825292	0.0409678499537547	0.0161748372470815	0.24014186221059616	0.0420708452442026	-0.10797490136954846	0.13021701914722103	1.3989593464245058	-0.021070234749984255	0.13708676673063172	1.6241491827811019	0.017282645968613664	0.12443140042868991	1.5151829796922385	0.10947827030273308	-0.02378413102614665	1.3110059278427635	-0.028018633440174405	-0.13611178507847613	1.1026930797512033	0.07232688732799922	-0.16912767182410932	1.300974152259668	0.12400379478660137	0.2769693805238764	1.3102704573443336	-0.04547784524649471	0.38003362445144573	1.1084461803839083	0.045860676403318736	0.4001120824438076	1.2982117078223263	0.12611401896371413
